<?xml version="1.0" encoding="UTF-8" ?>
<!DOCTYPE svg PUBLIC "-//W3C//DTD SVG 1.1//EN" "http://www.w3.org/Graphics/SVG/1.1/DTD/svg11.dtd">
<svg width="550pt" height="130pt" viewBox="0 0 550 130" version="1.1" xmlns="http://www.w3.org/2000/svg">
<path fill="#fafafa" d=" M 0.00 0.00 L 550.00 0.00 L 550.00 130.00 L 0.00 130.00 L 0.00 0.00 Z" />
<path fill="#229d58" d=" M 530.18 7.48 C 531.70 7.56 533.23 7.57 534.75 7.83 C 536.25 9.06 537.48 10.56 538.78 12.00 C 535.55 17.80 531.90 23.81 526.28 27.59 C 523.76 29.58 520.66 27.98 518.12 26.97 C 518.38 24.91 518.06 22.48 519.73 20.91 C 523.58 16.72 526.61 11.89 530.18 7.48 Z" />
<path fill="#229d58" d=" M 476.14 59.85 C 482.02 54.09 488.67 49.02 496.03 45.28 C 498.18 46.30 499.88 47.91 500.97 50.03 C 497.33 54.74 492.32 58.04 487.81 61.82 C 485.29 63.89 481.89 63.52 478.86 63.76 C 477.95 62.46 477.04 61.15 476.14 59.85 Z" />
<path fill="#229d58" d=" M 162.65 66.84 C 163.25 63.51 165.36 60.01 169.09 59.77 C 175.57 59.45 182.19 59.11 188.56 60.65 C 188.63 63.43 189.66 67.54 185.97 68.39 C 180.63 68.72 175.27 68.35 169.93 68.57 C 167.36 68.77 164.99 67.71 162.65 66.84 Z" />
<path fill="#229d58" d=" M 125.38 63.94 C 128.36 63.46 131.78 63.15 134.33 65.13 C 135.16 67.51 134.88 70.52 132.05 71.30 C 126.53 73.30 120.75 74.89 114.91 75.61 C 112.09 76.15 108.96 74.75 108.11 71.89 C 108.14 69.48 110.25 67.73 112.44 67.18 C 116.70 65.90 121.03 64.83 125.38 63.94 Z" />
<path fill="#229d58" d=" M 220.15 63.78 C 225.32 62.55 230.60 63.96 235.73 64.75 C 238.18 65.29 241.18 65.63 242.60 68.00 C 242.99 70.53 241.21 72.60 240.20 74.75 C 237.10 74.66 234.07 74.10 231.08 73.31 C 226.33 72.01 220.85 72.64 216.93 69.15 C 217.76 67.25 218.26 64.96 220.15 63.78 Z" />
<path fill="#229d58" d=" M 433.23 79.00 C 438.53 77.10 443.78 75.05 449.12 73.28 C 450.74 74.47 452.35 75.66 453.97 76.85 C 453.01 78.84 452.24 81.20 450.08 82.20 C 444.93 85.11 439.20 86.84 433.60 88.64 C 430.32 89.54 428.45 86.31 426.92 84.04 C 428.74 82.06 430.60 79.91 433.23 79.00 Z" />
<path fill="#229d58" d=" M 270.75 75.76 C 272.38 73.71 275.38 74.32 277.60 74.85 C 283.55 77.03 290.25 78.17 294.96 82.76 C 292.95 84.89 290.88 89.42 287.32 87.99 C 282.47 85.85 277.29 84.67 272.27 83.04 C 269.05 82.30 268.12 77.69 270.75 75.76 Z" />
<path fill="#229d58" d=" M 66.13 82.89 C 69.42 81.39 72.50 79.24 76.09 78.53 C 79.77 77.57 83.32 83.38 79.92 85.82 C 76.93 88.13 73.22 89.22 69.97 91.10 C 66.84 92.69 63.67 94.77 60.03 94.72 C 58.35 93.78 57.12 92.25 55.71 90.98 C 57.26 86.33 62.19 84.89 66.13 82.89 Z" />
<path fill="#229d58" d=" M 323.10 88.54 C 328.56 88.50 333.92 90.02 339.38 90.42 C 342.04 90.45 344.08 92.29 346.17 93.68 C 345.02 95.73 344.46 98.62 341.82 99.25 C 334.65 100.01 327.52 98.17 320.63 96.38 C 319.16 93.42 319.60 89.72 323.10 88.54 Z" />
<path fill="#229d58" d=" M 379.28 90.97 C 385.52 90.48 391.71 88.71 398.01 89.67 C 399.99 90.83 399.53 93.27 399.90 95.20 C 397.72 96.50 395.67 98.45 393.00 98.52 C 388.06 99.00 383.14 99.96 378.17 99.69 C 376.25 99.78 374.91 98.22 373.43 97.27 C 373.46 96.41 373.50 94.67 373.53 93.81 C 375.31 92.62 377.04 91.14 379.28 90.97 Z" />
<path fill="#229d58" d=" M 16.24 119.21 C 20.20 115.00 24.09 110.45 29.25 107.68 C 31.23 107.98 33.05 108.89 34.92 109.59 C 34.52 111.68 34.30 114.04 32.56 115.52 C 28.97 118.94 25.57 122.55 22.01 126.00 C 19.93 128.37 15.22 128.31 13.90 125.14 C 12.57 122.88 14.99 120.85 16.24 119.21 Z" />
</svg>
