<?xml version="1.0" encoding="UTF-8" ?>
<!DOCTYPE svg PUBLIC "-//W3C//DTD SVG 1.1//EN" "http://www.w3.org/Graphics/SVG/1.1/DTD/svg11.dtd">
<svg width="550pt" height="130pt" viewBox="0 0 550 130" version="1.1" xmlns="http://www.w3.org/2000/svg">
<path fill="#fafafa" d=" M 0.00 0.00 L 550.00 0.00 L 550.00 130.00 L 0.00 130.00 L 0.00 0.00 Z" />
<path fill="#229d58" d=" M 11.48 12.02 C 13.09 8.78 16.17 6.91 19.81 7.45 C 23.34 11.91 26.42 16.71 30.27 20.91 C 31.93 22.52 31.58 25.00 31.91 27.09 C 29.73 27.64 27.56 28.94 25.25 28.39 C 21.61 26.70 18.84 23.62 16.55 20.40 C 14.67 17.74 12.40 15.21 11.48 12.02 Z" />
<path fill="#229d58" d=" M 48.98 50.00 C 50.23 48.02 51.93 46.44 53.91 45.21 C 61.27 49.01 67.93 54.07 73.87 59.82 C 72.93 61.13 72.02 62.45 71.14 63.79 C 67.88 63.57 64.23 63.78 61.64 61.41 C 57.29 57.75 52.53 54.50 48.98 50.00 Z" />
<path fill="#229d58" d=" M 361.42 60.63 C 368.10 59.29 375.01 59.22 381.77 59.92 C 385.20 60.53 386.58 64.03 387.66 66.91 C 380.43 69.78 372.52 68.08 364.96 68.48 C 360.63 68.50 361.10 63.63 361.42 60.63 Z" />
<path fill="#229d58" d=" M 417.57 63.73 C 424.36 62.97 430.92 65.44 437.40 67.10 C 439.96 67.56 441.57 69.76 442.51 72.02 C 440.82 75.41 436.64 76.20 433.22 75.43 C 427.93 74.30 422.55 73.18 417.52 71.16 C 414.31 70.11 414.58 64.94 417.57 63.73 Z" />
<path fill="#229d58" d=" M 314.27 64.76 C 319.40 63.96 324.68 62.56 329.85 63.77 C 331.69 64.99 332.09 67.34 333.15 69.14 C 329.14 72.51 323.71 72.06 318.92 73.32 C 315.91 74.08 312.85 74.66 309.74 74.78 C 308.82 72.57 307.11 70.50 307.38 67.98 C 308.84 65.66 311.81 65.28 314.27 64.76 Z" />
<path fill="#229d58" d=" M 96.02 76.91 C 97.61 75.66 99.26 74.48 100.89 73.28 C 106.45 75.19 111.96 77.22 117.46 79.30 C 120.13 80.26 121.82 82.60 123.13 85.00 C 121.84 86.17 120.59 87.40 119.14 88.38 C 117.30 89.22 115.34 88.39 113.58 87.78 C 108.93 86.08 104.10 84.70 99.82 82.17 C 97.75 81.14 97.02 78.81 96.02 76.91 Z" />
<path fill="#229d58" d=" M 273.24 74.62 C 276.44 73.51 280.87 75.23 280.73 79.05 C 281.01 82.40 277.17 83.32 274.66 84.01 C 270.34 85.01 266.27 86.91 261.94 87.81 C 258.42 88.49 256.91 84.86 255.02 82.66 C 260.13 78.15 266.96 76.74 273.24 74.62 Z" />
<path fill="#229d58" d=" M 469.27 85.60 C 469.28 82.94 468.87 79.43 472.11 78.49 C 475.44 78.20 478.34 80.20 481.22 81.56 C 485.96 84.21 491.98 85.58 494.50 90.92 C 493.00 92.22 491.57 93.60 489.96 94.76 C 486.82 94.75 484.01 93.17 481.29 91.79 C 477.35 89.59 473.20 87.81 469.27 85.60 Z" />
<path fill="#229d58" d=" M 210.61 90.43 C 215.50 89.92 220.34 89.03 225.21 88.48 C 227.61 88.03 229.40 90.14 230.41 92.03 C 229.98 93.46 229.66 94.91 229.46 96.39 C 222.79 98.04 215.99 99.82 209.06 99.38 C 205.94 99.34 205.10 95.85 203.71 93.70 C 205.86 92.34 207.94 90.53 210.61 90.43 Z" />
<path fill="#229d58" d=" M 151.99 89.66 C 157.99 88.72 163.89 90.39 169.85 90.84 C 172.32 91.01 174.42 92.37 176.45 93.67 C 176.48 94.61 176.55 96.51 176.58 97.45 C 175.01 98.22 173.67 99.62 171.83 99.69 C 166.86 99.94 161.93 99.03 157.01 98.50 C 154.34 98.37 152.25 96.51 150.05 95.22 C 150.45 93.29 150.10 90.89 151.99 89.66 Z" />
<path fill="#229d58" d=" M 515.41 109.72 C 517.31 108.35 520.38 106.77 522.47 108.63 C 527.58 112.37 532.12 116.95 535.91 122.01 C 537.43 123.90 535.19 125.83 534.62 127.64 C 532.60 127.35 530.16 128.01 528.55 126.45 C 524.84 123.15 521.58 119.37 517.93 116.01 C 516.12 114.47 514.94 112.13 515.41 109.72 Z" />
</svg>
